<?xml version="1.0" encoding="UTF-8"?>
<svg version="1.1" xmlns="http://www.w3.org/2000/svg" width="149" height="134">
<path d="M0 0 C0.62648438 0.144375 1.25296875 0.28875 1.8984375 0.4375 C3.12433594 0.7159375 3.12433594 0.7159375 4.375 1 C5.59316406 1.2784375 5.59316406 1.2784375 6.8359375 1.5625 C9.4421028 2.08937818 10.80368274 2.05682868 13.375 1.3125 C16 1 16 1 18.1484375 2.15625 C20 4 20 4 20.390625 6.48046875 C20.34421875 7.37378906 20.2978125 8.26710938 20.25 9.1875 C20.21390625 10.08855469 20.1778125 10.98960938 20.140625 11.91796875 C20.09421875 12.60503906 20.0478125 13.29210938 20 14 C20.99 13.34 21.98 12.68 23 12 C22.505 9.03 22.505 9.03 22 6 C24.475 6.495 24.475 6.495 27 7 C26.54177532 10.46941546 26.10868317 13.67395049 25 17 C22.9375 17.6875 22.9375 17.6875 21 18 C21 18.99 21 19.98 21 21 C23.31 21.33 25.62 21.66 28 22 C27.505 23.485 27.505 23.485 27 25 C25.35 25 23.7 25 22 25 C24.31 25.33 26.62 25.66 29 26 C29.495 27.485 29.495 27.485 30 29 C31.36125 29.2165625 31.36125 29.2165625 32.75 29.4375 C35.21476956 29.86409473 37.58847107 30.35074221 40 31 C40 32.98 40 34.96 40 37 C38.02 37.66 36.04 38.32 34 39 C33.91363281 39.95261719 33.82726562 40.90523437 33.73828125 41.88671875 C33.59777344 43.14097656 33.45726562 44.39523438 33.3125 45.6875 C33.18488281 46.92886719 33.05726562 48.17023438 32.92578125 49.44921875 C31.82071622 53.68763272 30.40971088 55.30917399 27 58 C23.52235819 59.23379927 20.10354245 59.12925826 16.44140625 59.1328125 C14.53198242 59.13474609 14.53198242 59.13474609 12.58398438 59.13671875 C11.92358154 59.13462402 11.26317871 59.1325293 10.58276367 59.13037109 C8.5726768 59.12502706 6.56281426 59.13032271 4.55273438 59.13671875 C2.64137695 59.13478516 2.64137695 59.13478516 0.69140625 59.1328125 C-1.05354126 59.13112061 -1.05354126 59.13112061 -2.83374023 59.12939453 C-5.67964153 59.01309199 -8.23427351 58.65323949 -11 58 C-11.495 56.515 -11.495 56.515 -12 55 C-12.66 54.34 -13.32 53.68 -14 53 C-14.4313523 51.01521557 -14.77491843 49.01065434 -15.0625 47 C-15.58603718 42.86094885 -15.58603718 42.86094885 -17 39 C-17.66 38.67 -18.32 38.34 -19 38 C-20.0194119 37.01979625 -21.02246356 36.02196992 -22 35 C-21 32 -21 32 -18 30 C-17.34 29.34 -16.68 28.68 -16 28 C-15.01 28.33 -14.02 28.66 -13 29 C-13 27.68 -13 26.36 -13 25 C-12.01 24.34 -11.02 23.68 -10 23 C-9.67 22.34 -9.34 21.68 -9 21 C-7.68 21.33 -6.36 21.66 -5 22 C-4.67 20.02 -4.34 18.04 -4 16 C-5.32 15.67 -6.64 15.34 -8 15 C-8 11.7 -8 8.4 -8 5 C-6.35 5.33 -4.7 5.66 -3 6 C-3.99 6.495 -3.99 6.495 -5 7 C-4.95547581 9.32891902 -4.95547581 9.32891902 -4 12 C-2.02043058 13.69088222 -0.02054804 15.35830472 2 17 C2.9375 19.1875 2.9375 19.1875 3 21 C2.67 21.66 2.34 22.32 2 23 C1.01 23 0.02 23 -1 23 C1.31 23.33 3.62 23.66 6 24 C6 21.69 6 19.38 6 17 C6.99 16.67 7.98 16.34 9 16 C9 15.34 9 14.68 9 14 C9.598125 13.896875 10.19625 13.79375 10.8125 13.6875 C13.38994819 12.87744486 14.43063575 12.19710995 16 10 C16.25069913 7.37429296 16.25069913 7.37429296 16 5 C14.68 5.33 13.36 5.66 12 6 C11.67 7.65 11.34 9.3 11 11 C10.01 10.67 9.02 10.34 8 10 C6.8125 6.4375 6.8125 6.4375 6 3 C5.34 3 4.68 3 4 3 C3.13523314 5.42134721 2.8577202 6.60873054 3.75 9.0625 C4.93591008 11.05011393 4.93591008 11.05011393 6.625 12.625 C7.07875 13.07875 7.5325 13.5325 8 14 C8 14.66 8 15.32 8 16 C4.10719633 14.41404295 1.51394253 12.37586568 -1 9 C-1.12504629 5.89468372 -0.66615259 3.0273667 0 0 Z M13 16 C12.01 16.99 11.02 17.98 10 19 C10.66 19 11.32 19 12 19 C11.67 19.99 11.34 20.98 11 22 C11.33 22.66 11.66 23.32 12 24 C13.32 23.67 14.64 23.34 16 23 C16.33 21.35 16.66 19.7 17 18 C15.68 17.34 14.36 16.68 13 16 Z M-2 18 C-1 20 -1 20 -1 20 Z M8 21 C9 24 9 24 9 24 Z M9 24 C8.67 24.66 8.34 25.32 8 26 C8.99 25.67 9.98 25.34 11 25 C10.34 24.67 9.68 24.34 9 24 Z M-5 26 C-5 26.33 -5 26.66 -5 27 C-3.02 27 -1.04 27 1 27 C1 26.67 1 26.34 1 26 C-0.98 26 -2.96 26 -5 26 Z M-10 27 C-10.33 27.66 -10.66 28.32 -11 29 C-9.68 29 -8.36 29 -7 29 C-7 28.34 -7 27.68 -7 27 C-7.99 27 -8.98 27 -10 27 Z M-11 41 C-10 45 -10 45 -10 45 Z " fill="#E8C5B5" transform="translate(65,23)"/>
<path d="M0 0 C0 1.98 0 3.96 0 6 C-1.98 6.66 -3.96 7.32 -6 8 C-6.08636719 8.95261719 -6.17273438 9.90523437 -6.26171875 10.88671875 C-6.40222656 12.14097656 -6.54273438 13.39523438 -6.6875 14.6875 C-6.87892578 16.54955078 -6.87892578 16.54955078 -7.07421875 18.44921875 C-8.17928378 22.68763272 -9.59028912 24.30917399 -13 27 C-16.47764181 28.23379927 -19.89645755 28.12925826 -23.55859375 28.1328125 C-25.46801758 28.13474609 -25.46801758 28.13474609 -27.41601562 28.13671875 C-28.07641846 28.13462402 -28.73682129 28.1325293 -29.41723633 28.13037109 C-31.4273232 28.12502706 -33.43718574 28.13032271 -35.44726562 28.13671875 C-37.35862305 28.13478516 -37.35862305 28.13478516 -39.30859375 28.1328125 C-41.05354126 28.13112061 -41.05354126 28.13112061 -42.83374023 28.12939453 C-45.67964153 28.01309199 -48.23427351 27.65323949 -51 27 C-51.33 26.01 -51.66 25.02 -52 24 C-52.66 23.34 -53.32 22.68 -54 22 C-54.4313523 20.01521557 -54.77491843 18.01065434 -55.0625 16 C-55.58603718 11.86094885 -55.58603718 11.86094885 -57 8 C-57.66 7.67 -58.32 7.34 -59 7 C-60.0194119 6.01979625 -61.02246356 5.02196992 -62 4 C-61.67 3.01 -61.34 2.02 -61 1 C-56.89175923 1.5453417 -54.57348746 2.79534108 -51.3125 5.3125 C-40.5660196 13.04742985 -28.30087523 15.89334172 -15.12109375 14.58203125 C-12.57466106 13.88328637 -11.00606316 12.68764043 -9 11 C-9.268125 10.278125 -9.53625 9.55625 -9.8125 8.8125 C-10 6 -10 6 -7.75 3.25 C-5.07607238 1.06224104 -3.47801728 0 0 0 Z M-51 10 C-50 14 -50 14 -50 14 Z " fill="#B65D47" transform="translate(105,54)"/>
<path d="M0 0 C16.5 0 33 0 50 0 C50 3 50 3 48 6 C47.92094936 8.33199388 47.91201231 10.66832622 48 13 C36.31972706 17.54232836 25.9534211 16.46485672 14.44921875 11.453125 C7.94833409 8.12537883 4.85974522 5.83169427 0 0 Z " fill="#EBB0A4" transform="translate(48,54)"/>
<path d="M0 0 C0.93972656 0.2165625 0.93972656 0.2165625 1.8984375 0.4375 C3.12433594 0.7159375 3.12433594 0.7159375 4.375 1 C5.18710938 1.185625 5.99921875 1.37125 6.8359375 1.5625 C9.4421028 2.08937818 10.80368274 2.05682868 13.375 1.3125 C16 1 16 1 18.1484375 2.15625 C20 4 20 4 20.390625 6.48046875 C20.32101563 7.82044922 20.32101563 7.82044922 20.25 9.1875 C20.21390625 10.08855469 20.1778125 10.98960938 20.140625 11.91796875 C20.07101563 12.94857422 20.07101563 12.94857422 20 14 C20.99 13.34 21.98 12.68 23 12 C22.67 10.02 22.34 8.04 22 6 C24.475 6.495 24.475 6.495 27 7 C26.54177532 10.46941546 26.10868317 13.67395049 25 17 C22.9375 17.6875 22.9375 17.6875 21 18 C21 18.99 21 19.98 21 21 C23.31 21.33 25.62 21.66 28 22 C27.67 22.99 27.34 23.98 27 25 C22.71 24.67 18.42 24.34 14 24 C14.66 23.67 15.32 23.34 16 23 C16 21.35 16 19.7 16 18 C15.01 17.67 14.02 17.34 13 17 C11.99782936 20.58327753 11.99782936 20.58327753 13 24 C16.02934491 24.65772428 16.02934491 24.65772428 19 25 C18.67 25.66 18.34 26.32 18 27 C16.906875 26.835 15.81375 26.67 14.6875 26.5 C10.42743992 25.92236473 7.16673363 26.09908462 3 27 C3.495 26.649375 3.99 26.29875 4.5 25.9375 C6.73063966 23.05625711 6.19980621 20.52990974 6 17 C6.99 16.67 7.98 16.34 9 16 C9 15.34 9 14.68 9 14 C9.598125 13.896875 10.19625 13.79375 10.8125 13.6875 C13.38994819 12.87744486 14.43063575 12.19710995 16 10 C16.25069913 7.37429296 16.25069913 7.37429296 16 5 C14.68 5.33 13.36 5.66 12 6 C11.67 7.65 11.34 9.3 11 11 C10.01 10.67 9.02 10.34 8 10 C6.8125 6.4375 6.8125 6.4375 6 3 C5.34 3 4.68 3 4 3 C3.13523314 5.42134721 2.8577202 6.60873054 3.75 9.0625 C4.93591008 11.05011393 4.93591008 11.05011393 6.625 12.625 C7.07875 13.07875 7.5325 13.5325 8 14 C8 14.66 8 15.32 8 16 C4.10719633 14.41404295 1.51394253 12.37586568 -1 9 C-1.12504629 5.89468372 -0.66615259 3.0273667 0 0 Z M8 21 C9 24 9 24 9 24 Z " fill="#CFABA1" transform="translate(65,23)"/>
<path d="M0 0 C1.96035175 0.44962196 3.91824309 0.90998248 5.875 1.375 C7.51082031 1.75785156 7.51082031 1.75785156 9.1796875 2.1484375 C12 3 12 3 14 5 C16.33163378 5.67258667 18.6652039 6.33847444 21 7 C22.33417969 7.75410156 22.33417969 7.75410156 23.6953125 8.5234375 C27.78162566 10.349237 31.20324364 10.55315844 35.625 10.6875 C36.37523437 10.72166016 37.12546875 10.75582031 37.8984375 10.79101562 C41.26871263 10.93741942 44.62633327 11 48 11 C48 11.66 48 12.32 48 13 C36.31972706 17.54232836 25.9534211 16.46485672 14.44921875 11.453125 C8.46811693 8.39145113 3.72704298 5.65958378 0 0 Z " fill="#F6DDBF" transform="translate(48,54)"/>
<path d="M0 0 C0.680625 0.185625 1.36125 0.37125 2.0625 0.5625 C5.0956608 1.16557733 5.0956608 1.16557733 8.5 0.4375 C12.17246485 -0.02155811 13.78134342 0.29600534 17 2 C18 3 18 3 18.09765625 5.28515625 C18.08605469 6.20167969 18.07445313 7.11820312 18.0625 8.0625 C18.05347656 8.98160156 18.04445313 9.90070313 18.03515625 10.84765625 C18.02355469 11.55792969 18.01195313 12.26820312 18 13 C16.68 13.33 15.36 13.66 14 14 C14 11.03 14 8.06 14 5 C13.67 5 13.34 5 13 5 C12.67 7.31 12.34 9.62 12 12 C10.68 12 9.36 12 8 12 C8 10.02 8 8.04 8 6 C7.34 6 6.68 6 6 6 C6 8.64 6 11.28 6 14 C4.68 13.67 3.36 13.34 2 13 C1.93941406 12.22914062 1.87882812 11.45828125 1.81640625 10.6640625 C1.73261719 9.66117188 1.64882813 8.65828125 1.5625 7.625 C1.48128906 6.62726563 1.40007813 5.62953125 1.31640625 4.6015625 C1.15034374 2.02072387 1.15034374 2.02072387 0 0 Z " fill="#924F3E" transform="translate(53,89)"/>
<path d="M0 0 C1.16273437 -0.02578125 2.32546875 -0.0515625 3.5234375 -0.078125 C6.625 0.25 6.625 0.25 8.52734375 1.50390625 C10.4959603 4.63547777 9.80268447 7.63708242 9.625 11.25 C8.305 11.25 6.985 11.25 5.625 11.25 C5.625 9.27 5.625 7.29 5.625 5.25 C4.965 5.25 4.305 5.25 3.625 5.25 C3.625 7.89 3.625 10.53 3.625 13.25 C2.305 12.92 0.985 12.59 -0.375 12.25 C-0.705 9.94 -1.035 7.63 -1.375 5.25 C-2.035 5.25 -2.695 5.25 -3.375 5.25 C-3.705 7.56 -4.035 9.87 -4.375 12.25 C-5.365 12.58 -6.355 12.91 -7.375 13.25 C-8.67555604 10.64888792 -8.30612435 9.06258678 -8 6.1875 C-7.90976563 5.28902344 -7.81953125 4.39054687 -7.7265625 3.46484375 C-7.01079784 -1.04447358 -4.02437759 0.05330301 0 0 Z " fill="#B3624D" transform="translate(80.375,89.75)"/>
<path d="M0 0 C0.35268934 1.6626783 0.68033861 3.33065717 1 5 C1.2475 6.19625 1.495 7.3925 1.75 8.625 C2 12 2 12 0.80859375 13.69921875 C-1.51262485 15.36869131 -2.85920228 15.31046947 -5.6875 15.1875 C-6.49574219 15.16042969 -7.30398437 15.13335937 -8.13671875 15.10546875 C-8.75160156 15.07066406 -9.36648437 15.03585938 -10 15 C-11 12 -11 12 -10 9.625 C-8.7426209 7.03965904 -8.7426209 7.03965904 -9.5625 4.375 C-10 2 -10 2 -9 0.125 C-5.89740743 -1.62020832 -3.3726293 -0.69997967 0 0 Z M-6 5 C-3.525 5.495 -3.525 5.495 -1 6 C-1.33 5.01 -1.66 4.02 -2 3 C-3.46225016 2.90754997 -3.46225016 2.90754997 -6 5 Z M-7 8 C-7 8.99 -7 9.98 -7 11 C-5.35 11.33 -3.7 11.66 -2 12 C-2 11.01 -2 10.02 -2 9 C-3.65 8.67 -5.3 8.34 -7 8 Z " fill="#94503F" transform="translate(46,87)"/>
<path d="M0 0 C0 0.66 0 1.32 0 2 C1.32 2.33 2.64 2.66 4 3 C2.35 3.33 0.7 3.66 -1 4 C0.46638916 3.99214478 0.46638916 3.99214478 1.96240234 3.98413086 C5.63394229 3.96585499 9.30547832 3.95448651 12.97705078 3.94506836 C14.55778686 3.94007927 16.13851841 3.93328562 17.71923828 3.92456055 C37.93088287 3.81589579 37.93088287 3.81589579 43 5 C43.66 5.66 44.32 6.32 45 7 C41.98480678 8.00506441 40.11941717 8.0915426 36.9777832 8.02172852 C35.44653557 7.99158409 35.44653557 7.99158409 33.88435364 7.96083069 C32.78427475 7.93379562 31.68419586 7.90676056 30.55078125 7.87890625 C29.4230278 7.85529526 28.29527435 7.83168427 27.13334656 7.80735779 C23.52627042 7.73069718 19.91940767 7.64668276 16.3125 7.5625 C13.86915112 7.50928174 11.42579177 7.45654133 8.98242188 7.40429688 C2.98814881 7.27507873 -3.00596537 7.13982023 -9 7 C-8.34 6.01 -7.68 5.02 -7 4 C-6.01 4.33 -5.02 4.66 -4 5 C-4 3.68 -4 2.36 -4 1 C-2 0 -2 0 0 0 Z " fill="#A4563F" transform="translate(56,47)"/>
<path d="M0 0 C2.0078125 0.328125 2.0078125 0.328125 3.75390625 1.55078125 C6.06672807 4.82908009 5.17665007 8.44486092 5.0078125 12.328125 C1.7078125 12.658125 -1.5921875 12.988125 -4.9921875 13.328125 C-6.98763087 9.21252305 -7.25465889 5.87762916 -6.9921875 1.328125 C-5.11954074 -0.54452176 -2.49458803 0.09205122 0 0 Z " fill="#9B5442" transform="translate(97.9921875,89.671875)"/>
<path d="M0 0 C0.61488281 0.144375 1.22976562 0.28875 1.86328125 0.4375 C3.07564453 0.7159375 3.07564453 0.7159375 4.3125 1 C5.11300781 1.185625 5.91351563 1.37125 6.73828125 1.5625 C9.10695938 2.09495823 9.10695938 2.09495823 12 2 C12.66 3.32 13.32 4.64 14 6 C13.34 6 12.68 6 12 6 C11.67 7.65 11.34 9.3 11 11 C10.01 10.67 9.02 10.34 8 10 C6.8125 6.4375 6.8125 6.4375 6 3 C5.34 3 4.68 3 4 3 C3.13523314 5.42134721 2.8577202 6.60873054 3.75 9.0625 C4.93591008 11.05011393 4.93591008 11.05011393 6.625 12.625 C7.07875 13.07875 7.5325 13.5325 8 14 C8 14.66 8 15.32 8 16 C4.10719633 14.41404295 1.51394253 12.37586568 -1 9 C-1.12504629 5.89468372 -0.66615259 3.0273667 0 0 Z " fill="#7F9380" transform="translate(65,23)"/>
<path d="M0 0 C1.65 0.33 3.3 0.66 5 1 C4.01 1.495 4.01 1.495 3 2 C3.04452419 4.32891902 3.04452419 4.32891902 4 7 C5.97956942 8.69088222 7.97945196 10.35830472 10 12 C10.9375 14.1875 10.9375 14.1875 11 16 C10.67 16.66 10.34 17.32 10 18 C7.75 18.5625 7.75 18.5625 5 19 C4.071875 19.185625 3.14375 19.37125 2.1875 19.5625 C1.465625 19.706875 0.74375 19.85125 0 20 C-0.66 18.68 -1.32 17.36 -2 16 C-0.35 16.33 1.3 16.66 3 17 C3.33 15.02 3.66 13.04 4 11 C2.68 10.67 1.36 10.34 0 10 C0 6.7 0 3.4 0 0 Z M6 13 C7 15 7 15 7 15 Z " fill="#687769" transform="translate(57,28)"/>
<path d="M0 0 C1.65 0.33 3.3 0.66 5 1 C4.54177532 4.46941546 4.10868317 7.67395049 3 11 C0.9375 11.6875 0.9375 11.6875 -1 12 C-1 12.99 -1 13.98 -1 15 C1.31 15.33 3.62 15.66 6 16 C5.67 16.99 5.34 17.98 5 19 C0.71 18.67 -3.58 18.34 -8 18 C-7.34 17.67 -6.68 17.34 -6 17 C-5.83312552 14.58354218 -5.83312552 14.58354218 -6 12 C-6.66 11.34 -7.32 10.68 -8 10 C-3.375 7 -3.375 7 0 7 C0 6.01 0 5.02 0 4 C0 2.68 0 1.36 0 0 Z " fill="#747E71" transform="translate(87,29)"/>
<path d="M0 0 C2.475 0.495 2.475 0.495 5 1 C7.23167185 0.63143136 7.23167185 0.63143136 9 0 C9.33 0.66 9.66 1.32 10 2 C9.67 2.66 9.34 3.32 9 4 C8.01 4 7.02 4 6 4 C4.85647084 6.28705831 4.89665561 7.59264762 4.9375 10.125 C4.958125 11.40375 4.97875 12.6825 5 14 C3.68 13.67 2.36 13.34 1 13 C0.67 8.71 0.34 4.42 0 0 Z " fill="#A95F4A" transform="translate(104,89)"/>
<path d="M0 0 C0.99 0.33 1.98 0.66 3 1 C3 5.62 3 10.24 3 15 C1.68 15 0.36 15 -1 15 C-1.02685412 12.68756208 -1.04632841 10.3750373 -1.0625 8.0625 C-1.07410156 6.77472656 -1.08570313 5.48695312 -1.09765625 4.16015625 C-1 1 -1 1 0 0 Z " fill="#9F5643" transform="translate(50,86)"/>
<path d="M0 0 C4.75 0.75 4.75 0.75 7 3 C7.1953125 5.1640625 7.1953125 5.1640625 7.125 7.625 C7.10695313 8.44226562 7.08890625 9.25953125 7.0703125 10.1015625 C7.03550781 11.04128906 7.03550781 11.04128906 7 12 C5.02 12.66 3.04 13.32 1 14 C1 11 1 11 3 9 C3.16687448 6.41645782 3.16687448 6.41645782 3 4 C1.68 3.67 0.36 3.34 -1 3 C-0.67 2.01 -0.34 1.02 0 0 Z " fill="#E2BEB2" transform="translate(78,24)"/>
<path d="M0 0 C2.475 0.99 2.475 0.99 5 2 C5 2.99 5 3.98 5 5 C4.34 5 3.68 5 3 5 C2.67 7.31 2.34 9.62 2 12 C1.01 12.33 0.02 12.66 -1 13 C-2.30055604 10.39888792 -1.93112435 8.81258678 -1.625 5.9375 C-1.53476563 5.03902344 -1.44453125 4.14054687 -1.3515625 3.21484375 C-1 1 -1 1 0 0 Z " fill="#A2533F" transform="translate(74,90)"/>
<path d="M0 0 C0.66 0 1.32 0 2 0 C2 0.99 2 1.98 2 3 C5.43515002 3.62457273 8.49064814 4 12 4 C12 5.32 12 6.64 12 8 C8.7 8.33 5.4 8.66 2 9 C0.50178941 5.62902617 0 3.79557881 0 0 Z " fill="#A9604D" transform="translate(91,94)"/>
<path d="M0 0 C0.928125 0.165 1.85625 0.33 2.8125 0.5 C5.95621353 1.07748388 5.95621353 1.07748388 9 1 C9.66 2.32 10.32 3.64 11 5 C10.34 5 9.68 5 9 5 C8.67 6.65 8.34 8.3 8 10 C7.01 9.67 6.02 9.34 5 9 C3.8125 5.4375 3.8125 5.4375 3 2 C2.01 2 1.02 2 0 2 C0 1.34 0 0.68 0 0 Z " fill="#9B9788" transform="translate(68,24)"/>
<path d="M0 0 C4.875 0.875 4.875 0.875 6 2 C6.07205511 3.68608966 6.08386068 5.37500659 6.0625 7.0625 C6.05347656 7.98160156 6.04445313 8.90070313 6.03515625 9.84765625 C6.02355469 10.55792969 6.01195313 11.26820312 6 12 C4.68 12.33 3.36 12.66 2 13 C2 9.37 2 5.74 2 2 C1.34 2 0.68 2 0 2 C0 1.34 0 0.68 0 0 Z " fill="#B26450" transform="translate(65,90)"/>
<path d="M0 0 C3.37462715 0.54723683 5.08235 1.0549 8 3 C7.6875 4.875 7.6875 4.875 7 7 C6.01 7.66 5.02 8.32 4 9 C4 8.34 4 7.68 4 7 C3.34 6.67 2.68 6.34 2 6 C0.9805881 5.01979625 -0.02246356 4.02196992 -1 3 C-0.67 2.01 -0.34 1.02 0 0 Z " fill="#8B4734" transform="translate(44,55)"/>
<path d="M0 0 C0 0.66 0 1.32 0 2 C1.32 2.33 2.64 2.66 4 3 C2.35 3.33 0.7 3.66 -1 4 C0.98 4.66 2.96 5.32 5 6 C5 6.33 5 6.66 5 7 C0.38 7 -4.24 7 -9 7 C-8.34 6.01 -7.68 5.02 -7 4 C-6.01 4.33 -5.02 4.66 -4 5 C-4 3.68 -4 2.36 -4 1 C-2 0 -2 0 0 0 Z " fill="#9A6656" transform="translate(56,47)"/>
<path d="M0 0 C0.99 0.66 1.98 1.32 3 2 C3.40843923 4.71203652 3.13336867 7.2437142 3 10 C1.68 10 0.36 10 -1 10 C-1 8.02 -1 6.04 -1 4 C-1.66 3.67 -2.32 3.34 -3 3 C-2.01 2.01 -1.02 1.02 0 0 Z " fill="#984F3D" transform="translate(87,91)"/>
<path d="M0 0 C0.144375 0.61875 0.28875 1.2375 0.4375 1.875 C0.93152225 4.03258322 0.93152225 4.03258322 2 6 C2.66 6 3.32 6 4 6 C3.67 7.98 3.34 9.96 3 12 C2.01 12 1.02 12 0 12 C0 11.34 0 10.68 0 10 C-0.66 10 -1.32 10 -2 10 C-2.17942163 6.05272412 -2.09350689 3.4019487 0 0 Z " fill="#A2503B" transform="translate(52,62)"/>
<path d="M0 0 C1.65 0.33 3.3 0.66 5 1 C4.54177532 4.46941546 4.10868317 7.67395049 3 11 C1.68 10.34 0.36 9.68 -1 9 C-0.649375 8.2575 -0.29875 7.515 0.0625 6.75 C1.04509293 3.8677274 1.0326802 2.78823655 0 0 Z " fill="#738273" transform="translate(87,29)"/>
<path d="M0 0 C4.47400242 -0.36275695 4.47400242 -0.36275695 6.8125 1.25 C8 3 8 3 8 7 C6.68 6.67 5.36 6.34 4 6 C4 5.34 4 4.68 4 4 C2.68 3.34 1.36 2.68 0 2 C0 1.34 0 0.68 0 0 Z " fill="#B6644C" transform="translate(95,90)"/>
<path d="M0 0 C0.7425 0.185625 1.485 0.37125 2.25 0.5625 C4.94990963 0.99203108 6.44631077 0.85122974 9 0 C9.33 0.66 9.66 1.32 10 2 C9.67 2.66 9.34 3.32 9 4 C8.01 4 7.02 4 6 4 C5.67 4.66 5.34 5.32 5 6 C4.01 5.67 3.02 5.34 2 5 C2 4.01 2 3.02 2 2 C1.34 2 0.68 2 0 2 C0 1.34 0 0.68 0 0 Z " fill="#8E5040" transform="translate(104,89)"/>
<path d="M0 0 C0.66 0 1.32 0 2 0 C2.33 1.65 2.66 3.3 3 5 C5.97 5.495 5.97 5.495 9 6 C8.67 6.66 8.34 7.32 8 8 C1.25 7.25 1.25 7.25 -1 5 C-0.625 2.375 -0.625 2.375 0 0 Z " fill="#756C65" transform="translate(75,42)"/>
<path d="M0 0 C2.31 0.33 4.62 0.66 7 1 C7.33 2.32 7.66 3.64 8 5 C4.85262818 4.30058404 1.97411124 3.23921302 -1 2 C-0.67 1.34 -0.34 0.68 0 0 Z " fill="#C06D55" transform="translate(39,86)"/>
<path d="M0 0 C1.32 0.66 2.64 1.32 4 2 C3.34 3.98 2.68 5.96 2 8 C1.34 8 0.68 8 0 8 C0 7.01 0 6.02 0 5 C-1.32 4.34 -2.64 3.68 -4 3 C-2.68 2.01 -1.36 1.02 0 0 Z " fill="#5A695B" transform="translate(83,36)"/>
<path d="M0 0 C0.45375 0.495 0.9075 0.99 1.375 1.5 C2.87635519 3.22609337 2.87635519 3.22609337 5 3 C4.67 3.99 4.34 4.98 4 6 C3.01 6 2.02 6 1 6 C0.34 6.66 -0.32 7.32 -1 8 C-1.66 7.34 -2.32 6.68 -3 6 C-2.625 3.875 -2.625 3.875 -2 2 C-2 2.66 -2 3.32 -2 4 C-1.34 3.67 -0.68 3.34 0 3 C0 2.01 0 1.02 0 0 Z " fill="#B4705F" transform="translate(54,70)"/>
<path d="M0 0 C2.475 0.495 2.475 0.495 5 1 C4.01 1.495 4.01 1.495 3 2 C3.33 3.98 3.66 5.96 4 8 C2.68 7.67 1.36 7.34 0 7 C0 4.69 0 2.38 0 0 Z " fill="#788878" transform="translate(57,28)"/>
<path d="M0 0 C2.97 0.33 5.94 0.66 9 1 C8.01 2.485 8.01 2.485 7 4 C3.875 4.1875 3.875 4.1875 1 4 C0.67 2.68 0.34 1.36 0 0 Z " fill="#BF644D" transform="translate(38,98)"/>
<path d="M0 0 C0 1.98 0 3.96 0 6 C-0.66 6 -1.32 6 -2 6 C-2 5.34 -2 4.68 -2 4 C-3.65 3.67 -5.3 3.34 -7 3 C-4.74624683 0.74624683 -3.20799182 0 0 0 Z " fill="#7E4938" transform="translate(105,54)"/>
<path d="M0 0 C1.65 0.33 3.3 0.66 5 1 C5 1.99 5 2.98 5 4 C3.35 4 1.7 4 0 4 C0 2.68 0 1.36 0 0 Z " fill="#BC6751" transform="translate(44,55)"/>
<path d="M0 0 C2.97 0.495 2.97 0.495 6 1 C6 1.99 6 2.98 6 4 C3.69 4 1.38 4 -1 4 C-0.67 2.68 -0.34 1.36 0 0 Z " fill="#A34F3B" transform="translate(97,57)"/>
<path d="M0 0 C3.375 -0.125 3.375 -0.125 7 0 C7.66 0.66 8.32 1.32 9 2 C5.30581799 3.231394 2.7943739 2.64432764 -1 2 C-0.67 1.34 -0.34 0.68 0 0 Z " fill="#B57564" transform="translate(92,52)"/>
<path d="M0 0 C2.475 0.99 2.475 0.99 5 2 C5 2.99 5 3.98 5 5 C4.34 5 3.68 5 3 5 C3 6.65 3 8.3 3 10 C2.67 10 2.34 10 2 10 C1.34 6.7 0.68 3.4 0 0 Z " fill="#7D4F44" transform="translate(74,90)"/>
<path d="M0 0 C1.32 0 2.64 0 4 0 C3.67 1.65 3.34 3.3 3 5 C2.01 4.67 1.02 4.34 0 4 C0 2.68 0 1.36 0 0 Z " fill="#E3B8AD" transform="translate(73,29)"/>
<path d="M0 0 C0.99 0 1.98 0 3 0 C3.33 1.32 3.66 2.64 4 4 C2.35 4 0.7 4 -1 4 C-0.67 2.68 -0.34 1.36 0 0 Z " fill="#6A382A" transform="translate(96,94)"/>
<path d="M0 0 C2.475 0.495 2.475 0.495 5 1 C5 1.99 5 2.98 5 4 C3.35 4 1.7 4 0 4 C0 2.68 0 1.36 0 0 Z " fill="#B55F48" transform="translate(58,90)"/>
<path d="M0 0 C1.32 0.99 2.64 1.98 4 3 C3.67 4.98 3.34 6.96 3 9 C2.34 9 1.68 9 1 9 C1.020625 8.071875 1.04125 7.14375 1.0625 6.1875 C1.15769604 2.97713989 1.15769604 2.97713989 0 0 Z " fill="#778677" transform="translate(73,16)"/>
<path d="M0 0 C0.66 0 1.32 0 2 0 C1.67 0.66 1.34 1.32 1 2 C0.67 1.34 0.34 0.68 0 0 Z " fill="#000000" transform="translate(65,37)"/>
<path d="M0 0 C2 1 2 1 2 1 Z " fill="#000000" transform="translate(107,89)"/>
<path d="M0 0 C2 1 2 1 2 1 Z " fill="#000000" transform="translate(61,34)"/>
<path d="" fill="#000000" transform="translate(0,0)"/>
<path d="" fill="#000000" transform="translate(0,0)"/>
<path d="" fill="#000000" transform="translate(0,0)"/>
<path d="" fill="#000000" transform="translate(0,0)"/>
<path d="" fill="#000000" transform="translate(0,0)"/>
<path d="" fill="#000000" transform="translate(0,0)"/>
<path d="" fill="#000000" transform="translate(0,0)"/>
<path d="" fill="#000000" transform="translate(0,0)"/>
<path d="" fill="#000000" transform="translate(0,0)"/>
<path d="" fill="#000000" transform="translate(0,0)"/>
<path d="" fill="#000000" transform="translate(0,0)"/>
<path d="" fill="#000000" transform="translate(0,0)"/>
<path d="" fill="#000000" transform="translate(0,0)"/>
<path d="" fill="#000000" transform="translate(0,0)"/>
<path d="" fill="#000000" transform="translate(0,0)"/>
<path d="" fill="#000000" transform="translate(0,0)"/>
<path d="" fill="#000000" transform="translate(0,0)"/>
<path d="" fill="#000000" transform="translate(0,0)"/>
<path d="" fill="#000000" transform="translate(0,0)"/>
<path d="" fill="#000000" transform="translate(0,0)"/>
<path d="" fill="#000000" transform="translate(0,0)"/>
<path d="" fill="#000000" transform="translate(0,0)"/>
<path d="" fill="#000000" transform="translate(0,0)"/>
<path d="" fill="#000000" transform="translate(0,0)"/>
<path d="" fill="#000000" transform="translate(0,0)"/>
<path d="" fill="#000000" transform="translate(0,0)"/>
<path d="" fill="#000000" transform="translate(0,0)"/>
<path d="" fill="#000000" transform="translate(0,0)"/>
<path d="" fill="#000000" transform="translate(0,0)"/>
<path d="" fill="#000000" transform="translate(0,0)"/>
<path d="" fill="#000000" transform="translate(0,0)"/>
<path d="" fill="#000000" transform="translate(0,0)"/>
<path d="" fill="#000000" transform="translate(0,0)"/>
<path d="" fill="#000000" transform="translate(0,0)"/>
<path d="" fill="#000000" transform="translate(0,0)"/>
<path d="" fill="#000000" transform="translate(0,0)"/>
<path d="" fill="#000000" transform="translate(0,0)"/>
<path d="" fill="#000000" transform="translate(0,0)"/>
<path d="" fill="#000000" transform="translate(0,0)"/>
<path d="" fill="#000000" transform="translate(0,0)"/>
<path d="" fill="#000000" transform="translate(0,0)"/>
<path d="" fill="#000000" transform="translate(0,0)"/>
<path d="" fill="#000000" transform="translate(0,0)"/>
<path d="" fill="#000000" transform="translate(0,0)"/>
<path d="" fill="#000000" transform="translate(0,0)"/>
<path d="" fill="#000000" transform="translate(0,0)"/>
<path d="" fill="#000000" transform="translate(0,0)"/>
<path d="" fill="#000000" transform="translate(0,0)"/>
<path d="" fill="#000000" transform="translate(0,0)"/>
<path d="" fill="#000000" transform="translate(0,0)"/>
<path d="" fill="#000000" transform="translate(0,0)"/>
<path d="" fill="#000000" transform="translate(0,0)"/>
<path d="" fill="#000000" transform="translate(0,0)"/>
<path d="" fill="#000000" transform="translate(0,0)"/>
<path d="" fill="#000000" transform="translate(0,0)"/>
<path d="" fill="#000000" transform="translate(0,0)"/>
<path d="" fill="#000000" transform="translate(0,0)"/>
<path d="" fill="#000000" transform="translate(0,0)"/>
<path d="" fill="#000000" transform="translate(0,0)"/>
<path d="" fill="#000000" transform="translate(0,0)"/>
<path d="" fill="#000000" transform="translate(0,0)"/>
<path d="" fill="#000000" transform="translate(0,0)"/>
<path d="" fill="#000000" transform="translate(0,0)"/>
<path d="" fill="#000000" transform="translate(0,0)"/>
<path d="" fill="#000000" transform="translate(0,0)"/>
<path d="" fill="#000000" transform="translate(0,0)"/>
<path d="" fill="#000000" transform="translate(0,0)"/>
<path d="" fill="#000000" transform="translate(0,0)"/>
<path d="" fill="#000000" transform="translate(0,0)"/>
<path d="" fill="#000000" transform="translate(0,0)"/>
<path d="" fill="#000000" transform="translate(0,0)"/>
<path d="" fill="#000000" transform="translate(0,0)"/>
<path d="" fill="#000000" transform="translate(0,0)"/>
<path d="" fill="#000000" transform="translate(0,0)"/>
<path d="" fill="#000000" transform="translate(0,0)"/>
<path d="" fill="#000000" transform="translate(0,0)"/>
<path d="" fill="#000000" transform="translate(0,0)"/>
<path d="" fill="#000000" transform="translate(0,0)"/>
<path d="" fill="#000000" transform="translate(0,0)"/>
<path d="" fill="#000000" transform="translate(0,0)"/>
<path d="" fill="#000000" transform="translate(0,0)"/>
<path d="" fill="#000000" transform="translate(0,0)"/>
<path d="" fill="#000000" transform="translate(0,0)"/>
<path d="" fill="#000000" transform="translate(0,0)"/>
<path d="" fill="#000000" transform="translate(0,0)"/>
<path d="" fill="#000000" transform="translate(0,0)"/>
<path d="" fill="#000000" transform="translate(0,0)"/>
<path d="" fill="#000000" transform="translate(0,0)"/>
<path d="" fill="#000000" transform="translate(0,0)"/>
<path d="" fill="#000000" transform="translate(0,0)"/>
<path d="" fill="#000000" transform="translate(0,0)"/>
<path d="" fill="#000000" transform="translate(0,0)"/>
<path d="" fill="#000000" transform="translate(0,0)"/>
<path d="" fill="#000000" transform="translate(0,0)"/>
<path d="" fill="#000000" transform="translate(0,0)"/>
<path d="" fill="#000000" transform="translate(0,0)"/>
<path d="" fill="#000000" transform="translate(0,0)"/>
<path d="" fill="#000000" transform="translate(0,0)"/>
<path d="" fill="#000000" transform="translate(0,0)"/>
<path d="" fill="#000000" transform="translate(0,0)"/>
<path d="" fill="#000000" transform="translate(0,0)"/>
<path d="" fill="#000000" transform="translate(0,0)"/>
<path d="" fill="#000000" transform="translate(0,0)"/>
<path d="" fill="#000000" transform="translate(0,0)"/>
<path d="" fill="#000000" transform="translate(0,0)"/>
<path d="" fill="#000000" transform="translate(0,0)"/>
<path d="" fill="#000000" transform="translate(0,0)"/>
<path d="" fill="#000000" transform="translate(0,0)"/>
<path d="" fill="#000000" transform="translate(0,0)"/>
<path d="" fill="#000000" transform="translate(0,0)"/>
<path d="" fill="#000000" transform="translate(0,0)"/>
<path d="" fill="#000000" transform="translate(0,0)"/>
<path d="" fill="#000000" transform="translate(0,0)"/>
<path d="" fill="#000000" transform="translate(0,0)"/>
<path d="" fill="#000000" transform="translate(0,0)"/>
<path d="" fill="#000000" transform="translate(0,0)"/>
<path d="" fill="#000000" transform="translate(0,0)"/>
<path d="" fill="#000000" transform="translate(0,0)"/>
<path d="" fill="#000000" transform="translate(0,0)"/>
<path d="" fill="#000000" transform="translate(0,0)"/>
<path d="" fill="#000000" transform="translate(0,0)"/>
<path d="" fill="#000000" transform="translate(0,0)"/>
<path d="" fill="#000000" transform="translate(0,0)"/>
<path d="" fill="#000000" transform="translate(0,0)"/>
<path d="" fill="#000000" transform="translate(0,0)"/>
</svg>
